<?xml version="1.0" encoding="utf-8"?>
<!-- Generator: Adobe Illustrator 18.0.0, SVG Export Plug-In . SVG Version: 6.00 Build 0)  -->
<!DOCTYPE svg PUBLIC "-//W3C//DTD SVG 1.1//EN" "http://www.w3.org/Graphics/SVG/1.1/DTD/svg11.dtd">
<svg version="1.1" id="Layer_1" xmlns="http://www.w3.org/2000/svg" xmlns:xlink="http://www.w3.org/1999/xlink" x="0px" y="0px"
	 width="30px" height="30px" viewBox="0 0 30 30" style="enable-background:new 0 0 30 30;" xml:space="preserve">
<style type="text/css">
	.st0{fill:#09ABCD;}
</style>
<g>
	<path class="st0" d="M24.99,4.98c0.7,0,1.3,0.24,1.79,0.73c0.49,0.49,0.73,1.08,0.73,1.79v15c0,0.7-0.25,1.3-0.73,1.79
		c-0.49,0.49-1.08,0.73-1.79,0.73H5.01c-0.7,0-1.3-0.24-1.79-0.73C2.73,23.8,2.49,23.2,2.49,22.5v-15c0-0.7,0.24-1.3,0.73-1.79
		c0.49-0.49,1.08-0.73,1.79-0.73H24.99z M24.99,10.02V7.5l-10.02,6.27L5.01,7.5v2.52l9.96,6.21L24.99,10.02z"/>
</g>
</svg>
