<?xml version="1.0" encoding="utf-8"?>
<!-- Generator: Adobe Illustrator 18.0.0, SVG Export Plug-In . SVG Version: 6.00 Build 0)  -->
<!DOCTYPE svg PUBLIC "-//W3C//DTD SVG 1.1//EN" "http://www.w3.org/Graphics/SVG/1.1/DTD/svg11.dtd">
<svg version="1.1" id="Layer_1" xmlns="http://www.w3.org/2000/svg" xmlns:xlink="http://www.w3.org/1999/xlink" x="0px" y="0px"
	 width="30px" height="30px" viewBox="0 0 30 30" enable-background="new 0 0 30 30" xml:space="preserve">
<g>
	<g>
		<path fill="#2494F3" d="M25,2.5c0.7,0,1.3,0.2,1.8,0.7s0.7,1.1,0.7,1.7v20c0,0.7-0.2,1.2-0.7,1.7s-1.1,0.7-1.8,0.7H5
			c-0.7,0-1.3-0.3-1.8-0.7c-0.5-0.5-0.7-1.1-0.7-1.7V5c0-0.7,0.2-1.2,0.7-1.7S4.3,2.5,5,2.5H25z M6.5,9.7c0.4,0.4,1,0.6,1.6,0.6
			s1.2-0.2,1.6-0.6s0.7-1,0.7-1.6S10.2,7,9.7,6.5c-0.4-0.5-1-0.7-1.6-0.7C7.5,5.9,7,6.1,6.5,6.5C6.1,7,5.8,7.5,5.8,8.1
			C5.8,8.8,6.1,9.3,6.5,9.7z M10,23.7V12.5H6.2v11.3H10z M23.8,23.7v-7.1c0-1.2-0.4-2.3-1.3-3.1c-0.9-0.9-1.9-1.3-3.1-1.3
			c-0.6,0-1.2,0.2-1.8,0.5s-1,0.8-1.4,1.3v-1.5h-3.8v11.3h3.8v-6.6c0-0.5,0.2-1,0.5-1.3s0.8-0.6,1.3-0.6s1,0.2,1.4,0.6
			s0.6,0.8,0.6,1.3v6.6H23.8z"/>
	</g>
</g>
</svg>
